<mxfile host="app.diagrams.net" modified="2021-10-22T11:52:45.029Z" agent="5.0 (Windows NT 10.0; Win64; x64) AppleWebKit/537.36 (KHTML, like Gecko) Chrome/93.0.4577.63 Safari/537.36 Edg/93.0.961.44" etag="VroWd07qLih0IteQ6ONE" version="15.5.8" type="github">
  <diagram id="8I_mIMfLEamESNXaoSyJ" name="第 1 页">
    <mxGraphModel dx="1955" dy="1263" grid="1" gridSize="10" guides="1" tooltips="1" connect="1" arrows="1" fold="1" page="1" pageScale="1" pageWidth="3300" pageHeight="4681" math="0" shadow="0">
      <root>
        <mxCell id="0" />
        <mxCell id="1" parent="0" />
        <mxCell id="Zysu6RZLNLSL2eDihiWz-1" value="" style="whiteSpace=wrap;html=1;shadow=0;glass=0;strokeWidth=2;fillColor=none;gradientDirection=south;sketch=1;" parent="1" vertex="1">
          <mxGeometry x="1064" y="290" width="100" height="50" as="geometry" />
        </mxCell>
        <mxCell id="Zysu6RZLNLSL2eDihiWz-2" value="" style="endArrow=none;html=1;edgeStyle=orthogonalEdgeStyle;curved=0;strokeWidth=2;sketch=1;" parent="1" edge="1">
          <mxGeometry width="50" height="50" relative="1" as="geometry">
            <mxPoint x="1113.76" y="340" as="sourcePoint" />
            <mxPoint x="1113.76" y="290" as="targetPoint" />
          </mxGeometry>
        </mxCell>
        <mxCell id="Zysu6RZLNLSL2eDihiWz-3" value="" style="whiteSpace=wrap;html=1;shadow=0;glass=0;strokeWidth=2;fillColor=none;gradientDirection=south;sketch=1;" parent="1" vertex="1">
          <mxGeometry x="1200" y="290" width="100" height="50" as="geometry" />
        </mxCell>
        <mxCell id="Zysu6RZLNLSL2eDihiWz-4" value="" style="endArrow=none;html=1;edgeStyle=orthogonalEdgeStyle;curved=0;strokeWidth=2;sketch=1;" parent="1" edge="1">
          <mxGeometry width="50" height="50" relative="1" as="geometry">
            <mxPoint x="1249.76" y="340" as="sourcePoint" />
            <mxPoint x="1249.76" y="290" as="targetPoint" />
          </mxGeometry>
        </mxCell>
        <mxCell id="Zysu6RZLNLSL2eDihiWz-7" value="" style="whiteSpace=wrap;html=1;shadow=0;glass=0;strokeWidth=2;fillColor=none;gradientDirection=south;sketch=1;" parent="1" vertex="1">
          <mxGeometry x="930" y="290" width="100" height="50" as="geometry" />
        </mxCell>
        <mxCell id="Zysu6RZLNLSL2eDihiWz-8" value="" style="endArrow=none;html=1;edgeStyle=orthogonalEdgeStyle;curved=0;strokeWidth=2;sketch=1;" parent="1" edge="1">
          <mxGeometry width="50" height="50" relative="1" as="geometry">
            <mxPoint x="979.7600000000002" y="340" as="sourcePoint" />
            <mxPoint x="979.7600000000002" y="290" as="targetPoint" />
          </mxGeometry>
        </mxCell>
        <mxCell id="Zysu6RZLNLSL2eDihiWz-10" value="" style="endArrow=classic;html=1;endFill=1;strokeWidth=2;sketch=1;" parent="1" edge="1">
          <mxGeometry width="50" height="50" relative="1" as="geometry">
            <mxPoint x="1020" y="314.58000000000004" as="sourcePoint" />
            <mxPoint x="1064" y="314.58000000000004" as="targetPoint" />
          </mxGeometry>
        </mxCell>
        <mxCell id="Zysu6RZLNLSL2eDihiWz-12" value="" style="endArrow=classic;html=1;edgeStyle=orthogonalEdgeStyle;curved=0;endFill=1;strokeWidth=2;sketch=1;" parent="1" edge="1">
          <mxGeometry width="50" height="50" relative="1" as="geometry">
            <mxPoint x="1156" y="314.80000000000007" as="sourcePoint" />
            <mxPoint x="1200" y="314.80000000000007" as="targetPoint" />
            <Array as="points">
              <mxPoint x="1200" y="314.80000000000007" />
            </Array>
          </mxGeometry>
        </mxCell>
        <mxCell id="Zysu6RZLNLSL2eDihiWz-16" value="data" style="text;html=1;strokeColor=none;fillColor=none;align=center;verticalAlign=middle;whiteSpace=wrap;fontFamily=Comic Sans MS;fontSize=21;sketch=1;" parent="1" vertex="1">
          <mxGeometry x="926" y="300" width="60" height="30" as="geometry" />
        </mxCell>
        <mxCell id="Zysu6RZLNLSL2eDihiWz-17" value="data" style="text;html=1;strokeColor=none;fillColor=none;align=center;verticalAlign=middle;whiteSpace=wrap;fontFamily=Comic Sans MS;fontSize=21;sketch=1;" parent="1" vertex="1">
          <mxGeometry x="1060" y="300" width="60" height="30" as="geometry" />
        </mxCell>
        <mxCell id="Zysu6RZLNLSL2eDihiWz-18" value="data" style="text;html=1;strokeColor=none;fillColor=none;align=center;verticalAlign=middle;whiteSpace=wrap;fontFamily=Comic Sans MS;fontSize=21;sketch=1;" parent="1" vertex="1">
          <mxGeometry x="1196" y="300" width="60" height="30" as="geometry" />
        </mxCell>
        <mxCell id="Zysu6RZLNLSL2eDihiWz-19" value="" style="ellipse;whiteSpace=wrap;html=1;aspect=fixed;fillColor=#FFFFFF;strokeColor=none;gradientDirection=radial;sketch=1;" parent="1" vertex="1">
          <mxGeometry x="230" y="480" width="460" height="460" as="geometry" />
        </mxCell>
        <mxCell id="Zysu6RZLNLSL2eDihiWz-20" style="edgeStyle=none;orthogonalLoop=1;jettySize=auto;html=1;exitX=0;exitY=0;exitDx=0;exitDy=0;startArrow=none;startFill=0;endArrow=none;endFill=0;strokeWidth=2;strokeColor=#A680B8;sketch=1;" parent="1" source="Zysu6RZLNLSL2eDihiWz-24" target="Zysu6RZLNLSL2eDihiWz-19" edge="1">
          <mxGeometry relative="1" as="geometry" />
        </mxCell>
        <mxCell id="Zysu6RZLNLSL2eDihiWz-21" style="edgeStyle=none;orthogonalLoop=1;jettySize=auto;html=1;exitX=0;exitY=1;exitDx=0;exitDy=0;startArrow=none;startFill=0;endArrow=none;endFill=0;strokeWidth=2;strokeColor=#A680B8;sketch=1;" parent="1" source="Zysu6RZLNLSL2eDihiWz-24" target="Zysu6RZLNLSL2eDihiWz-19" edge="1">
          <mxGeometry relative="1" as="geometry" />
        </mxCell>
        <mxCell id="Zysu6RZLNLSL2eDihiWz-22" style="edgeStyle=none;orthogonalLoop=1;jettySize=auto;html=1;exitX=1;exitY=0;exitDx=0;exitDy=0;startArrow=none;startFill=0;endArrow=none;endFill=0;strokeWidth=2;strokeColor=#A680B8;sketch=1;" parent="1" source="Zysu6RZLNLSL2eDihiWz-24" target="Zysu6RZLNLSL2eDihiWz-19" edge="1">
          <mxGeometry relative="1" as="geometry" />
        </mxCell>
        <mxCell id="Zysu6RZLNLSL2eDihiWz-23" style="edgeStyle=none;orthogonalLoop=1;jettySize=auto;html=1;exitX=1;exitY=1;exitDx=0;exitDy=0;startArrow=none;startFill=0;endArrow=none;endFill=0;strokeWidth=2;strokeColor=#A680B8;sketch=1;" parent="1" source="Zysu6RZLNLSL2eDihiWz-24" target="Zysu6RZLNLSL2eDihiWz-19" edge="1">
          <mxGeometry relative="1" as="geometry" />
        </mxCell>
        <mxCell id="Zysu6RZLNLSL2eDihiWz-24" value="" style="ellipse;whiteSpace=wrap;html=1;aspect=fixed;gradientDirection=radial;strokeColor=none;gradientColor=#FF9933;sketch=1;" parent="1" vertex="1">
          <mxGeometry x="340" y="590" width="240" height="240" as="geometry" />
        </mxCell>
        <mxCell id="Zysu6RZLNLSL2eDihiWz-25" value="" style="endArrow=none;html=1;entryX=0.5;entryY=0;entryDx=0;entryDy=0;strokeWidth=2;strokeColor=#A680B8;sketch=1;" parent="1" target="Zysu6RZLNLSL2eDihiWz-19" edge="1">
          <mxGeometry width="50" height="50" relative="1" as="geometry">
            <mxPoint x="459.17" y="590" as="sourcePoint" />
            <mxPoint x="459.17" y="520" as="targetPoint" />
          </mxGeometry>
        </mxCell>
        <mxCell id="Zysu6RZLNLSL2eDihiWz-26" value="" style="endArrow=none;html=1;entryX=0.5;entryY=0;entryDx=0;entryDy=0;strokeColor=#A680B8;strokeWidth=2;sketch=1;" parent="1" edge="1">
          <mxGeometry width="50" height="50" relative="1" as="geometry">
            <mxPoint x="459.50000000000006" y="940" as="sourcePoint" />
            <mxPoint x="460.33" y="830" as="targetPoint" />
          </mxGeometry>
        </mxCell>
        <mxCell id="Zysu6RZLNLSL2eDihiWz-27" value="" style="endArrow=none;html=1;entryX=0.5;entryY=0;entryDx=0;entryDy=0;exitX=1;exitY=0.5;exitDx=0;exitDy=0;strokeWidth=2;strokeColor=#A680B8;sketch=1;" parent="1" source="Zysu6RZLNLSL2eDihiWz-19" edge="1">
          <mxGeometry width="50" height="50" relative="1" as="geometry">
            <mxPoint x="679.17" y="709.5" as="sourcePoint" />
            <mxPoint x="579.9999999999999" y="709.5" as="targetPoint" />
          </mxGeometry>
        </mxCell>
        <mxCell id="Zysu6RZLNLSL2eDihiWz-28" value="" style="endArrow=none;html=1;entryX=0.5;entryY=0;entryDx=0;entryDy=0;exitX=1;exitY=0.5;exitDx=0;exitDy=0;strokeColor=#A680B8;strokeWidth=2;sketch=1;" parent="1" edge="1">
          <mxGeometry width="50" height="50" relative="1" as="geometry">
            <mxPoint x="340" y="710" as="sourcePoint" />
            <mxPoint x="230" y="709.5" as="targetPoint" />
          </mxGeometry>
        </mxCell>
        <mxCell id="Zysu6RZLNLSL2eDihiWz-29" value="[0]" style="text;html=1;strokeColor=none;fillColor=none;align=center;verticalAlign=middle;whiteSpace=wrap;fontSize=25;fontFamily=Comic Sans MS;fontColor=#FF9933;fontStyle=1;horizontal=1;labelBackgroundColor=none;labelBorderColor=none;sketch=1;" parent="1" vertex="1">
          <mxGeometry x="490" y="530" width="60" height="30" as="geometry" />
        </mxCell>
        <mxCell id="Zysu6RZLNLSL2eDihiWz-30" value="[7]" style="text;html=1;strokeColor=none;fillColor=none;align=center;verticalAlign=middle;whiteSpace=wrap;fontSize=25;fontFamily=Comic Sans MS;fontColor=#FF9933;fontStyle=1;horizontal=1;labelBackgroundColor=none;labelBorderColor=none;sketch=1;" parent="1" vertex="1">
          <mxGeometry x="360" y="530" width="60" height="30" as="geometry" />
        </mxCell>
        <mxCell id="Zysu6RZLNLSL2eDihiWz-31" value="[6]" style="text;html=1;strokeColor=none;fillColor=none;align=center;verticalAlign=middle;whiteSpace=wrap;fontSize=25;fontFamily=Comic Sans MS;fontColor=#FF9933;fontStyle=1;horizontal=1;labelBackgroundColor=none;labelBorderColor=none;sketch=1;" parent="1" vertex="1">
          <mxGeometry x="270" y="630" width="60" height="30" as="geometry" />
        </mxCell>
        <mxCell id="Zysu6RZLNLSL2eDihiWz-32" value="[5]" style="text;html=1;strokeColor=none;fillColor=none;align=center;verticalAlign=middle;whiteSpace=wrap;fontSize=25;fontFamily=Comic Sans MS;fontColor=#FF9933;fontStyle=1;horizontal=1;labelBackgroundColor=none;labelBorderColor=none;sketch=1;" parent="1" vertex="1">
          <mxGeometry x="260" y="760" width="60" height="30" as="geometry" />
        </mxCell>
        <mxCell id="Zysu6RZLNLSL2eDihiWz-33" value="[4]" style="text;html=1;strokeColor=none;fillColor=none;align=center;verticalAlign=middle;whiteSpace=wrap;fontSize=25;fontFamily=Comic Sans MS;fontColor=#FF9933;fontStyle=1;horizontal=1;labelBackgroundColor=none;labelBorderColor=none;sketch=1;" parent="1" vertex="1">
          <mxGeometry x="360" y="850" width="60" height="30" as="geometry" />
        </mxCell>
        <mxCell id="Zysu6RZLNLSL2eDihiWz-34" value="[1]" style="text;html=1;strokeColor=none;fillColor=none;align=center;verticalAlign=middle;whiteSpace=wrap;fontSize=25;fontFamily=Comic Sans MS;fontColor=#FF9933;fontStyle=1;horizontal=1;labelBackgroundColor=none;labelBorderColor=none;sketch=1;" parent="1" vertex="1">
          <mxGeometry x="584" y="620" width="60" height="30" as="geometry" />
        </mxCell>
        <mxCell id="Zysu6RZLNLSL2eDihiWz-35" value="[2]" style="text;html=1;strokeColor=none;fillColor=none;align=center;verticalAlign=middle;whiteSpace=wrap;fontSize=25;fontFamily=Comic Sans MS;fontColor=#FF9933;fontStyle=1;horizontal=1;labelBackgroundColor=none;labelBorderColor=none;sketch=1;" parent="1" vertex="1">
          <mxGeometry x="590" y="760" width="60" height="30" as="geometry" />
        </mxCell>
        <mxCell id="Zysu6RZLNLSL2eDihiWz-36" value="[3]" style="text;html=1;strokeColor=none;fillColor=none;align=center;verticalAlign=middle;whiteSpace=wrap;fontSize=25;fontFamily=Comic Sans MS;fontColor=#FF9933;fontStyle=1;horizontal=1;labelBackgroundColor=none;labelBorderColor=none;sketch=1;" parent="1" vertex="1">
          <mxGeometry x="500" y="860" width="60" height="30" as="geometry" />
        </mxCell>
        <mxCell id="Zysu6RZLNLSL2eDihiWz-37" value="front" style="whiteSpace=wrap;html=1;shape=mxgraph.basic.oval_callout;labelBackgroundColor=none;fontFamily=Comic Sans MS;fontSize=25;fontColor=#0000FF;fillColor=default;gradientDirection=radial;verticalAlign=middle;strokeColor=none;gradientColor=#FFCC99;sketch=1;" parent="1" vertex="1">
          <mxGeometry x="487" y="415" width="110" height="100" as="geometry" />
        </mxCell>
        <mxCell id="Zysu6RZLNLSL2eDihiWz-38" value="进队：&lt;br style=&quot;font-size: 30px;&quot;&gt;&lt;font color=&quot;#000000&quot; style=&quot;font-size: 30px;&quot;&gt;rear+1&lt;/font&gt;&lt;br style=&quot;font-size: 30px;&quot;&gt;&lt;br style=&quot;font-size: 30px;&quot;&gt;出队：&lt;br style=&quot;font-size: 30px;&quot;&gt;&lt;font color=&quot;#000000&quot; style=&quot;font-size: 30px;&quot;&gt;front+1&lt;/font&gt;" style="text;html=1;strokeColor=none;fillColor=none;align=left;verticalAlign=top;whiteSpace=wrap;labelBackgroundColor=none;fontFamily=Comic Sans MS;fontSize=30;fontColor=#FF0000;sketch=1;" parent="1" vertex="1">
          <mxGeometry x="716" y="620" width="140" height="210" as="geometry" />
        </mxCell>
        <mxCell id="Zysu6RZLNLSL2eDihiWz-39" value="front： 第一个元素的前一个位置&lt;br&gt;rear：&amp;nbsp; &amp;nbsp;队尾元素位置" style="text;html=1;strokeColor=none;fillColor=none;align=left;verticalAlign=top;whiteSpace=wrap;labelBackgroundColor=none;fontFamily=Comic Sans MS;fontSize=30;fontColor=#FF0000;horizontal=1;sketch=1;" parent="1" vertex="1">
          <mxGeometry x="40" y="410" width="470" height="100" as="geometry" />
        </mxCell>
        <mxCell id="Zysu6RZLNLSL2eDihiWz-40" style="edgeStyle=none;orthogonalLoop=1;jettySize=auto;html=1;exitX=1;exitY=0.5;exitDx=0;exitDy=0;fontFamily=Comic Sans MS;fontSize=30;fontColor=#FF0000;startArrow=none;startFill=0;endArrow=none;endFill=0;strokeColor=#A680B8;strokeWidth=2;sketch=1;" parent="1" source="Zysu6RZLNLSL2eDihiWz-39" target="Zysu6RZLNLSL2eDihiWz-39" edge="1">
          <mxGeometry relative="1" as="geometry" />
        </mxCell>
        <mxCell id="Zysu6RZLNLSL2eDihiWz-41" value="rear" style="whiteSpace=wrap;html=1;shape=mxgraph.basic.oval_callout;labelBackgroundColor=none;fontFamily=Comic Sans MS;fontSize=25;fontColor=#0000FF;fillColor=default;gradientDirection=radial;verticalAlign=middle;strokeColor=none;gradientColor=#FFCC99;sketch=1;" parent="1" vertex="1">
          <mxGeometry x="560" y="460" width="110" height="100" as="geometry" />
        </mxCell>
        <mxCell id="Zysu6RZLNLSL2eDihiWz-42" value="front" style="text;html=1;strokeColor=none;fillColor=none;align=center;verticalAlign=middle;whiteSpace=wrap;fontFamily=Comic Sans MS;fontSize=25;sketch=1;" parent="1" vertex="1">
          <mxGeometry x="910" y="240" width="60" height="30" as="geometry" />
        </mxCell>
        <mxCell id="Zysu6RZLNLSL2eDihiWz-43" value="L" style="text;html=1;strokeColor=none;fillColor=none;align=center;verticalAlign=middle;whiteSpace=wrap;fontFamily=Comic Sans MS;fontSize=25;sketch=1;" parent="1" vertex="1">
          <mxGeometry x="1050" y="180" width="60" height="30" as="geometry" />
        </mxCell>
        <mxCell id="Zysu6RZLNLSL2eDihiWz-46" value="" style="endArrow=classic;html=1;endFill=1;strokeWidth=2;strokeColor=#FF0000;sketch=1;" parent="1" source="Zysu6RZLNLSL2eDihiWz-48" edge="1">
          <mxGeometry width="50" height="50" relative="1" as="geometry">
            <mxPoint x="1233" y="270" as="sourcePoint" />
            <mxPoint x="1219" y="290" as="targetPoint" />
            <Array as="points" />
          </mxGeometry>
        </mxCell>
        <mxCell id="Zysu6RZLNLSL2eDihiWz-47" value="" style="endArrow=classic;html=1;endFill=1;strokeWidth=2;strokeColor=#FF0000;exitX=0;exitY=1;exitDx=0;exitDy=0;sketch=1;" parent="1" source="Zysu6RZLNLSL2eDihiWz-43" target="Zysu6RZLNLSL2eDihiWz-42" edge="1">
          <mxGeometry width="50" height="50" relative="1" as="geometry">
            <mxPoint x="1070" y="210" as="sourcePoint" />
            <mxPoint x="998" y="230" as="targetPoint" />
          </mxGeometry>
        </mxCell>
        <mxCell id="Zysu6RZLNLSL2eDihiWz-48" value="rear" style="text;html=1;strokeColor=none;fillColor=none;align=center;verticalAlign=middle;whiteSpace=wrap;fontFamily=Comic Sans MS;fontSize=25;sketch=1;" parent="1" vertex="1">
          <mxGeometry x="1210" y="240" width="60" height="30" as="geometry" />
        </mxCell>
        <mxCell id="Zysu6RZLNLSL2eDihiWz-49" value="" style="endArrow=classic;html=1;endFill=1;strokeWidth=2;strokeColor=#FF0000;exitX=0.75;exitY=1;exitDx=0;exitDy=0;entryX=0.25;entryY=0;entryDx=0;entryDy=0;sketch=1;" parent="1" source="Zysu6RZLNLSL2eDihiWz-43" target="Zysu6RZLNLSL2eDihiWz-48" edge="1">
          <mxGeometry width="50" height="50" relative="1" as="geometry">
            <mxPoint x="1130" y="189.99636363636364" as="sourcePoint" />
            <mxPoint x="1176" y="250" as="targetPoint" />
          </mxGeometry>
        </mxCell>
        <mxCell id="Zysu6RZLNLSL2eDihiWz-50" value="" style="endArrow=classic;html=1;endFill=1;strokeWidth=2;strokeColor=#FF0000;entryX=0.32;entryY=-0.036;entryDx=0;entryDy=0;entryPerimeter=0;sketch=1;" parent="1" source="Zysu6RZLNLSL2eDihiWz-42" target="Zysu6RZLNLSL2eDihiWz-7" edge="1">
          <mxGeometry width="50" height="50" relative="1" as="geometry">
            <mxPoint x="961" y="280" as="sourcePoint" />
            <mxPoint x="973.3" y="297.9" as="targetPoint" />
            <Array as="points" />
          </mxGeometry>
        </mxCell>
        <mxCell id="9BJwpCjlnF0WbDAI3doB-7" value="1" style="text;html=1;strokeColor=none;fillColor=none;align=center;verticalAlign=middle;whiteSpace=wrap;rounded=0;sketch=1;fontSize=20;fontFamily=Comic Sans MS;fontColor=#FF0000;" parent="1" vertex="1">
          <mxGeometry x="1006" y="820" width="60" height="30" as="geometry" />
        </mxCell>
        <mxCell id="9BJwpCjlnF0WbDAI3doB-8" value="2" style="text;html=1;strokeColor=none;fillColor=none;align=center;verticalAlign=middle;whiteSpace=wrap;rounded=0;sketch=1;fontSize=20;fontFamily=Comic Sans MS;fontColor=#FF0000;" parent="1" vertex="1">
          <mxGeometry x="1075" y="820" width="60" height="30" as="geometry" />
        </mxCell>
        <mxCell id="9BJwpCjlnF0WbDAI3doB-9" value="3" style="text;html=1;strokeColor=none;fillColor=none;align=center;verticalAlign=middle;whiteSpace=wrap;rounded=0;sketch=1;fontSize=20;fontFamily=Comic Sans MS;fontColor=#FF0000;" parent="1" vertex="1">
          <mxGeometry x="1145" y="820" width="60" height="30" as="geometry" />
        </mxCell>
        <mxCell id="9BJwpCjlnF0WbDAI3doB-10" value="4" style="text;html=1;strokeColor=none;fillColor=none;align=center;verticalAlign=middle;whiteSpace=wrap;rounded=0;sketch=1;fontSize=20;fontFamily=Comic Sans MS;fontColor=#FF0000;" parent="1" vertex="1">
          <mxGeometry x="1215" y="820" width="60" height="30" as="geometry" />
        </mxCell>
        <mxCell id="9BJwpCjlnF0WbDAI3doB-11" value="5" style="text;html=1;strokeColor=none;fillColor=none;align=center;verticalAlign=middle;whiteSpace=wrap;rounded=0;sketch=1;fontSize=20;fontFamily=Comic Sans MS;fontColor=#FF0000;" parent="1" vertex="1">
          <mxGeometry x="1285" y="820" width="60" height="30" as="geometry" />
        </mxCell>
        <mxCell id="9BJwpCjlnF0WbDAI3doB-12" value="6" style="text;html=1;strokeColor=none;fillColor=none;align=center;verticalAlign=middle;whiteSpace=wrap;rounded=0;sketch=1;fontSize=20;fontFamily=Comic Sans MS;fontColor=#FF0000;" parent="1" vertex="1">
          <mxGeometry x="1355" y="820" width="60" height="30" as="geometry" />
        </mxCell>
        <mxCell id="9BJwpCjlnF0WbDAI3doB-13" value="有序化之后，二分查找过程的顺序是确定的，可以用树来表示" style="text;html=1;strokeColor=none;fillColor=none;align=center;verticalAlign=middle;whiteSpace=wrap;rounded=0;sketch=1;fontFamily=Comic Sans MS;fontSize=16;fontColor=#331A00;labelBackgroundColor=none;fontStyle=1;horizontal=1;" parent="1" vertex="1">
          <mxGeometry x="989.75" y="745" width="440.5" height="15" as="geometry" />
        </mxCell>
        <mxCell id="9BJwpCjlnF0WbDAI3doB-14" value="" style="group" parent="1" vertex="1" connectable="0">
          <mxGeometry x="1000" y="780" width="420" height="35" as="geometry" />
        </mxCell>
        <mxCell id="9BJwpCjlnF0WbDAI3doB-1" value="" style="whiteSpace=wrap;html=1;sketch=1;fillStyle=hachure;fillColor=#0000FF;strokeColor=#000000;" parent="9BJwpCjlnF0WbDAI3doB-14" vertex="1">
          <mxGeometry width="70" height="35" as="geometry" />
        </mxCell>
        <mxCell id="9BJwpCjlnF0WbDAI3doB-2" value="" style="whiteSpace=wrap;html=1;sketch=1;fillStyle=hachure;fillColor=#0000FF;" parent="9BJwpCjlnF0WbDAI3doB-14" vertex="1">
          <mxGeometry x="70" width="70" height="35" as="geometry" />
        </mxCell>
        <mxCell id="9BJwpCjlnF0WbDAI3doB-3" value="" style="whiteSpace=wrap;html=1;sketch=1;fillStyle=hachure;fillColor=#0000FF;" parent="9BJwpCjlnF0WbDAI3doB-14" vertex="1">
          <mxGeometry x="140" width="70" height="35" as="geometry" />
        </mxCell>
        <mxCell id="9BJwpCjlnF0WbDAI3doB-4" value="" style="whiteSpace=wrap;html=1;sketch=1;fillStyle=hachure;fillColor=#0000FF;" parent="9BJwpCjlnF0WbDAI3doB-14" vertex="1">
          <mxGeometry x="210" width="70" height="35" as="geometry" />
        </mxCell>
        <mxCell id="9BJwpCjlnF0WbDAI3doB-5" value="" style="whiteSpace=wrap;html=1;sketch=1;fillStyle=hachure;fillColor=#0000FF;" parent="9BJwpCjlnF0WbDAI3doB-14" vertex="1">
          <mxGeometry x="280" width="70" height="35" as="geometry" />
        </mxCell>
        <mxCell id="9BJwpCjlnF0WbDAI3doB-6" value="" style="whiteSpace=wrap;html=1;sketch=1;fillStyle=hachure;fillColor=#0000FF;" parent="9BJwpCjlnF0WbDAI3doB-14" vertex="1">
          <mxGeometry x="350" width="70" height="35" as="geometry" />
        </mxCell>
        <mxCell id="9BJwpCjlnF0WbDAI3doB-15" value="3" style="ellipse;whiteSpace=wrap;html=1;aspect=fixed;labelBackgroundColor=none;sketch=0;fontFamily=Comic Sans MS;fontSize=16;fontColor=#331A00;strokeColor=#000000;fillColor=none;gradientDirection=south;align=center;strokeWidth=2;fillStyle=hachure;" parent="1" vertex="1">
          <mxGeometry x="1116" y="850" width="30" height="30" as="geometry" />
        </mxCell>
        <mxCell id="9BJwpCjlnF0WbDAI3doB-16" value="1" style="ellipse;whiteSpace=wrap;html=1;aspect=fixed;labelBackgroundColor=none;sketch=0;fontFamily=Comic Sans MS;fontSize=16;fontColor=#331A00;strokeColor=#000000;fillColor=none;gradientDirection=south;align=center;strokeWidth=2;fillStyle=hachure;" parent="1" vertex="1">
          <mxGeometry x="1066" y="890" width="30" height="30" as="geometry" />
        </mxCell>
        <mxCell id="9BJwpCjlnF0WbDAI3doB-17" value="5" style="ellipse;whiteSpace=wrap;html=1;aspect=fixed;labelBackgroundColor=none;sketch=0;fontFamily=Comic Sans MS;fontSize=16;fontColor=#331A00;strokeColor=#000000;fillColor=none;gradientDirection=south;align=center;strokeWidth=2;fillStyle=hachure;" parent="1" vertex="1">
          <mxGeometry x="1166" y="890" width="30" height="30" as="geometry" />
        </mxCell>
        <mxCell id="9BJwpCjlnF0WbDAI3doB-18" value="2" style="ellipse;whiteSpace=wrap;html=1;aspect=fixed;labelBackgroundColor=none;sketch=0;fontFamily=Comic Sans MS;fontSize=16;fontColor=#331A00;strokeColor=#000000;fillColor=none;gradientDirection=south;align=center;strokeWidth=2;fillStyle=hachure;" parent="1" vertex="1">
          <mxGeometry x="1096" y="940" width="30" height="30" as="geometry" />
        </mxCell>
        <mxCell id="9BJwpCjlnF0WbDAI3doB-19" value="6" style="ellipse;whiteSpace=wrap;html=1;aspect=fixed;labelBackgroundColor=none;sketch=0;fontFamily=Comic Sans MS;fontSize=16;fontColor=#331A00;strokeColor=#000000;fillColor=none;gradientDirection=south;align=center;strokeWidth=2;fillStyle=hachure;" parent="1" vertex="1">
          <mxGeometry x="1206" y="940" width="30" height="30" as="geometry" />
        </mxCell>
        <mxCell id="9BJwpCjlnF0WbDAI3doB-20" value="4" style="ellipse;whiteSpace=wrap;html=1;aspect=fixed;labelBackgroundColor=none;sketch=0;fontFamily=Comic Sans MS;fontSize=16;fontColor=#331A00;strokeColor=#000000;fillColor=none;gradientDirection=south;align=center;strokeWidth=2;fillStyle=hachure;" parent="1" vertex="1">
          <mxGeometry x="1136" y="940" width="30" height="30" as="geometry" />
        </mxCell>
        <mxCell id="9BJwpCjlnF0WbDAI3doB-21" value="" style="endArrow=open;html=1;rounded=1;sketch=0;fontFamily=Comic Sans MS;fontSize=16;fontColor=#331A00;endFill=0;exitX=0.006;exitY=0.65;exitDx=0;exitDy=0;entryX=1;entryY=0;entryDx=0;entryDy=0;strokeWidth=2;strokeColor=#FF0000;exitPerimeter=0;" parent="1" source="9BJwpCjlnF0WbDAI3doB-15" target="9BJwpCjlnF0WbDAI3doB-16" edge="1">
          <mxGeometry width="50" height="50" relative="1" as="geometry">
            <mxPoint x="1021" y="860" as="sourcePoint" />
            <mxPoint x="1021" y="900" as="targetPoint" />
          </mxGeometry>
        </mxCell>
        <mxCell id="9BJwpCjlnF0WbDAI3doB-23" value="" style="endArrow=open;html=1;rounded=1;sketch=0;fontFamily=Comic Sans MS;fontSize=16;fontColor=#331A00;endFill=0;entryX=0;entryY=0;entryDx=0;entryDy=0;strokeWidth=2;strokeColor=#FF0000;exitX=0.989;exitY=0.611;exitDx=0;exitDy=0;exitPerimeter=0;" parent="1" source="9BJwpCjlnF0WbDAI3doB-15" target="9BJwpCjlnF0WbDAI3doB-17" edge="1">
          <mxGeometry width="50" height="50" relative="1" as="geometry">
            <mxPoint x="1141" y="865" as="sourcePoint" />
            <mxPoint x="1241.4566017178101" y="890.0033982821896" as="targetPoint" />
          </mxGeometry>
        </mxCell>
        <mxCell id="9BJwpCjlnF0WbDAI3doB-24" value="" style="endArrow=open;html=1;rounded=1;sketch=0;fontFamily=Comic Sans MS;fontSize=16;fontColor=#331A00;endFill=0;entryX=0.372;entryY=0.067;entryDx=0;entryDy=0;strokeWidth=2;strokeColor=#FF0000;entryPerimeter=0;exitX=1;exitY=1;exitDx=0;exitDy=0;" parent="1" source="9BJwpCjlnF0WbDAI3doB-16" target="9BJwpCjlnF0WbDAI3doB-18" edge="1">
          <mxGeometry width="50" height="50" relative="1" as="geometry">
            <mxPoint x="1136.15" y="890.28" as="sourcePoint" />
            <mxPoint x="1111.6066017178102" y="914.3933982821895" as="targetPoint" />
          </mxGeometry>
        </mxCell>
        <mxCell id="9BJwpCjlnF0WbDAI3doB-25" value="" style="endArrow=open;html=1;rounded=1;sketch=0;fontFamily=Comic Sans MS;fontSize=16;fontColor=#331A00;endFill=0;exitX=0;exitY=1;exitDx=0;exitDy=0;strokeWidth=2;strokeColor=#FF0000;" parent="1" source="9BJwpCjlnF0WbDAI3doB-17" target="9BJwpCjlnF0WbDAI3doB-20" edge="1">
          <mxGeometry width="50" height="50" relative="1" as="geometry">
            <mxPoint x="1146.15" y="900.28" as="sourcePoint" />
            <mxPoint x="1151" y="930" as="targetPoint" />
          </mxGeometry>
        </mxCell>
        <mxCell id="9BJwpCjlnF0WbDAI3doB-26" value="" style="endArrow=open;html=1;rounded=1;sketch=0;fontFamily=Comic Sans MS;fontSize=16;fontColor=#331A00;endFill=0;exitX=1;exitY=1;exitDx=0;exitDy=0;strokeWidth=2;strokeColor=#FF0000;entryX=0.243;entryY=0.046;entryDx=0;entryDy=0;entryPerimeter=0;" parent="1" source="9BJwpCjlnF0WbDAI3doB-17" target="9BJwpCjlnF0WbDAI3doB-19" edge="1">
          <mxGeometry width="50" height="50" relative="1" as="geometry">
            <mxPoint x="1156.15" y="910.28" as="sourcePoint" />
            <mxPoint x="1211" y="940" as="targetPoint" />
          </mxGeometry>
        </mxCell>
        <mxCell id="9BJwpCjlnF0WbDAI3doB-27" value="查找过程是确定的&lt;br style=&quot;font-size: 16px&quot;&gt;左孩子对应的是&lt;font color=&quot;#0000ff&quot;&gt;right=mid-1；&lt;/font&gt;&lt;br style=&quot;font-size: 16px&quot;&gt;右孩子对应的是&lt;font color=&quot;#0000ff&quot;&gt;left=mid+1；&lt;/font&gt;" style="text;html=1;strokeColor=none;fillColor=none;align=center;verticalAlign=middle;whiteSpace=wrap;rounded=0;labelBackgroundColor=none;sketch=0;fontFamily=Comic Sans MS;fontSize=16;fontColor=#331A00;" parent="1" vertex="1">
          <mxGeometry x="1250" y="845" width="160" height="120" as="geometry" />
        </mxCell>
        <mxCell id="9BJwpCjlnF0WbDAI3doB-28" value="n个节点的层数为[log&lt;sub&gt;2&lt;/sub&gt;n]+1" style="text;html=1;strokeColor=none;fillColor=none;align=center;verticalAlign=middle;whiteSpace=wrap;rounded=0;labelBackgroundColor=none;sketch=0;fontFamily=Comic Sans MS;fontSize=16;fontColor=#0000FF;" parent="1" vertex="1">
          <mxGeometry x="1110" y="980" width="200" height="40" as="geometry" />
        </mxCell>
        <mxCell id="Kg7DQLDmodfQuBdxILWU-1" value="" style="whiteSpace=wrap;html=1;shadow=0;glass=0;strokeWidth=2;fillColor=none;gradientDirection=south;rounded=1;sketch=1;" parent="1" vertex="1">
          <mxGeometry x="1050" y="1080" width="100" height="50" as="geometry" />
        </mxCell>
        <mxCell id="Kg7DQLDmodfQuBdxILWU-2" value="" style="endArrow=none;html=1;rounded=1;sketch=0;edgeStyle=orthogonalEdgeStyle;curved=0;strokeWidth=2;" parent="1" edge="1">
          <mxGeometry width="50" height="50" relative="1" as="geometry">
            <mxPoint x="1099.76" y="1130" as="sourcePoint" />
            <mxPoint x="1099.76" y="1080" as="targetPoint" />
          </mxGeometry>
        </mxCell>
        <mxCell id="Kg7DQLDmodfQuBdxILWU-3" value="" style="whiteSpace=wrap;html=1;shadow=0;glass=0;strokeWidth=2;fillColor=none;gradientDirection=south;rounded=1;sketch=1;" parent="1" vertex="1">
          <mxGeometry x="1186" y="1080" width="100" height="50" as="geometry" />
        </mxCell>
        <mxCell id="Kg7DQLDmodfQuBdxILWU-4" value="" style="endArrow=none;html=1;rounded=1;sketch=0;edgeStyle=orthogonalEdgeStyle;curved=0;strokeWidth=2;" parent="1" edge="1">
          <mxGeometry width="50" height="50" relative="1" as="geometry">
            <mxPoint x="1235.76" y="1130" as="sourcePoint" />
            <mxPoint x="1235.76" y="1080" as="targetPoint" />
          </mxGeometry>
        </mxCell>
        <mxCell id="Kg7DQLDmodfQuBdxILWU-5" value="" style="whiteSpace=wrap;html=1;shadow=0;glass=0;strokeWidth=2;fillColor=none;gradientDirection=south;rounded=1;sketch=1;" parent="1" vertex="1">
          <mxGeometry x="1326" y="1080" width="100" height="50" as="geometry" />
        </mxCell>
        <mxCell id="Kg7DQLDmodfQuBdxILWU-6" value="" style="endArrow=none;html=1;rounded=1;sketch=0;edgeStyle=orthogonalEdgeStyle;curved=0;strokeWidth=2;" parent="1" edge="1">
          <mxGeometry width="50" height="50" relative="1" as="geometry">
            <mxPoint x="1375.7600000000002" y="1130" as="sourcePoint" />
            <mxPoint x="1375.7600000000002" y="1080" as="targetPoint" />
          </mxGeometry>
        </mxCell>
        <mxCell id="Kg7DQLDmodfQuBdxILWU-7" value="" style="whiteSpace=wrap;html=1;shadow=0;glass=0;strokeWidth=2;fillColor=none;gradientDirection=south;rounded=1;sketch=1;" parent="1" vertex="1">
          <mxGeometry x="916" y="1080" width="100" height="50" as="geometry" />
        </mxCell>
        <mxCell id="Kg7DQLDmodfQuBdxILWU-8" value="" style="endArrow=none;html=1;rounded=1;sketch=0;edgeStyle=orthogonalEdgeStyle;curved=0;strokeWidth=2;" parent="1" edge="1">
          <mxGeometry width="50" height="50" relative="1" as="geometry">
            <mxPoint x="965.7600000000002" y="1130" as="sourcePoint" />
            <mxPoint x="965.7600000000002" y="1080" as="targetPoint" />
          </mxGeometry>
        </mxCell>
        <mxCell id="Kg7DQLDmodfQuBdxILWU-9" value="" style="rounded=1;whiteSpace=wrap;html=1;sketch=1;fillStyle=hachure;fillColor=#3333FF;" parent="1" vertex="1">
          <mxGeometry x="1326" y="1080" width="50" height="50" as="geometry" />
        </mxCell>
        <mxCell id="Kg7DQLDmodfQuBdxILWU-10" value="" style="endArrow=classic;html=1;rounded=1;sketch=0;edgeStyle=orthogonalEdgeStyle;curved=0;endFill=1;strokeWidth=2;" parent="1" edge="1">
          <mxGeometry width="50" height="50" relative="1" as="geometry">
            <mxPoint x="1006" y="1104.58" as="sourcePoint" />
            <mxPoint x="1050" y="1104.58" as="targetPoint" />
            <Array as="points">
              <mxPoint x="1050" y="1104.58" />
            </Array>
          </mxGeometry>
        </mxCell>
        <mxCell id="Kg7DQLDmodfQuBdxILWU-11" value="" style="endArrow=classic;html=1;rounded=1;sketch=0;edgeStyle=orthogonalEdgeStyle;curved=0;entryX=0;entryY=0.5;entryDx=0;entryDy=0;fontSize=21;strokeWidth=2;" parent="1" target="Kg7DQLDmodfQuBdxILWU-7" edge="1">
          <mxGeometry width="50" height="50" relative="1" as="geometry">
            <mxPoint x="1406" y="1105" as="sourcePoint" />
            <mxPoint x="896" y="1105" as="targetPoint" />
            <Array as="points">
              <mxPoint x="1446" y="1105" />
              <mxPoint x="1446" y="1060" />
              <mxPoint x="886" y="1060" />
              <mxPoint x="886" y="1105" />
            </Array>
          </mxGeometry>
        </mxCell>
        <mxCell id="Kg7DQLDmodfQuBdxILWU-12" value="" style="endArrow=classic;html=1;rounded=1;sketch=0;edgeStyle=orthogonalEdgeStyle;curved=0;endFill=1;strokeWidth=2;" parent="1" edge="1">
          <mxGeometry width="50" height="50" relative="1" as="geometry">
            <mxPoint x="1142" y="1104.8000000000002" as="sourcePoint" />
            <mxPoint x="1186" y="1104.8000000000002" as="targetPoint" />
            <Array as="points">
              <mxPoint x="1186" y="1104.8000000000002" />
            </Array>
          </mxGeometry>
        </mxCell>
        <mxCell id="Kg7DQLDmodfQuBdxILWU-13" value="" style="endArrow=classic;html=1;rounded=1;sketch=0;edgeStyle=orthogonalEdgeStyle;curved=0;endFill=1;strokeWidth=2;" parent="1" edge="1">
          <mxGeometry width="50" height="50" relative="1" as="geometry">
            <mxPoint x="1282" y="1104.8000000000002" as="sourcePoint" />
            <mxPoint x="1326" y="1104.8000000000002" as="targetPoint" />
            <Array as="points">
              <mxPoint x="1326" y="1104.8000000000002" />
            </Array>
          </mxGeometry>
        </mxCell>
        <mxCell id="Kg7DQLDmodfQuBdxILWU-14" value="list" style="text;html=1;align=center;verticalAlign=middle;resizable=0;points=[];autosize=1;strokeColor=none;fillColor=none;fontSize=30;fontFamily=Comic Sans MS;" parent="1" vertex="1">
          <mxGeometry x="1431" y="1145" width="60" height="40" as="geometry" />
        </mxCell>
        <mxCell id="Kg7DQLDmodfQuBdxILWU-15" value="" style="endArrow=classic;html=1;rounded=1;sketch=0;fontFamily=Comic Sans MS;fontSize=35;endFill=1;strokeWidth=2;strokeColor=#FF0000;entryX=0.696;entryY=1.077;entryDx=0;entryDy=0;entryPerimeter=0;" parent="1" target="Kg7DQLDmodfQuBdxILWU-5" edge="1">
          <mxGeometry width="50" height="50" relative="1" as="geometry">
            <mxPoint x="1426" y="1160" as="sourcePoint" />
            <mxPoint x="1406" y="1140" as="targetPoint" />
          </mxGeometry>
        </mxCell>
        <mxCell id="Kg7DQLDmodfQuBdxILWU-16" value="data" style="text;html=1;strokeColor=none;fillColor=none;align=center;verticalAlign=middle;whiteSpace=wrap;rounded=0;sketch=1;fontFamily=Comic Sans MS;fontSize=21;" parent="1" vertex="1">
          <mxGeometry x="912" y="1090" width="60" height="30" as="geometry" />
        </mxCell>
        <mxCell id="Kg7DQLDmodfQuBdxILWU-17" value="data" style="text;html=1;strokeColor=none;fillColor=none;align=center;verticalAlign=middle;whiteSpace=wrap;rounded=0;sketch=1;fontFamily=Comic Sans MS;fontSize=21;" parent="1" vertex="1">
          <mxGeometry x="1046" y="1090" width="60" height="30" as="geometry" />
        </mxCell>
        <mxCell id="Kg7DQLDmodfQuBdxILWU-18" value="data" style="text;html=1;strokeColor=none;fillColor=none;align=center;verticalAlign=middle;whiteSpace=wrap;rounded=0;sketch=1;fontFamily=Comic Sans MS;fontSize=21;" parent="1" vertex="1">
          <mxGeometry x="1182" y="1090" width="60" height="30" as="geometry" />
        </mxCell>
        <mxCell id="UQDr-YrBXV10DUioXXCp-1" value="&lt;font size=&quot;7&quot;&gt;∅&lt;/font&gt;" style="text;html=1;strokeColor=none;fillColor=none;align=center;verticalAlign=middle;whiteSpace=wrap;rounded=0;" vertex="1" parent="1">
          <mxGeometry x="952" y="420" width="144" height="110" as="geometry" />
        </mxCell>
        <mxCell id="UQDr-YrBXV10DUioXXCp-2" value="" style="ellipse;whiteSpace=wrap;html=1;aspect=fixed;strokeWidth=2;" vertex="1" parent="1">
          <mxGeometry x="1072.5" y="457.5" width="35" height="35" as="geometry" />
        </mxCell>
        <mxCell id="UQDr-YrBXV10DUioXXCp-5" value="" style="ellipse;whiteSpace=wrap;html=1;aspect=fixed;strokeWidth=2;" vertex="1" parent="1">
          <mxGeometry x="1157.5" y="430" width="35" height="35" as="geometry" />
        </mxCell>
        <mxCell id="UQDr-YrBXV10DUioXXCp-6" value="" style="ellipse;whiteSpace=wrap;html=1;aspect=fixed;strokeWidth=2;" vertex="1" parent="1">
          <mxGeometry x="1310" y="480" width="35" height="35" as="geometry" />
        </mxCell>
        <mxCell id="UQDr-YrBXV10DUioXXCp-7" value="" style="ellipse;whiteSpace=wrap;html=1;aspect=fixed;strokeWidth=2;" vertex="1" parent="1">
          <mxGeometry x="1352.5" y="430" width="35" height="35" as="geometry" />
        </mxCell>
        <mxCell id="UQDr-YrBXV10DUioXXCp-8" value="" style="ellipse;whiteSpace=wrap;html=1;aspect=fixed;strokeWidth=2;" vertex="1" parent="1">
          <mxGeometry x="1257.5" y="480" width="35" height="35" as="geometry" />
        </mxCell>
        <mxCell id="UQDr-YrBXV10DUioXXCp-9" value="" style="ellipse;whiteSpace=wrap;html=1;aspect=fixed;strokeWidth=2;" vertex="1" parent="1">
          <mxGeometry x="1126" y="480" width="35" height="35" as="geometry" />
        </mxCell>
        <mxCell id="UQDr-YrBXV10DUioXXCp-10" value="" style="ellipse;whiteSpace=wrap;html=1;aspect=fixed;strokeWidth=2;" vertex="1" parent="1">
          <mxGeometry x="1215" y="430" width="35" height="35" as="geometry" />
        </mxCell>
        <mxCell id="UQDr-YrBXV10DUioXXCp-11" value="" style="endArrow=none;html=1;rounded=0;entryX=0.233;entryY=0.924;entryDx=0;entryDy=0;strokeWidth=2;entryPerimeter=0;" edge="1" parent="1" source="UQDr-YrBXV10DUioXXCp-9" target="UQDr-YrBXV10DUioXXCp-5">
          <mxGeometry width="50" height="50" relative="1" as="geometry">
            <mxPoint x="1250" y="580" as="sourcePoint" />
            <mxPoint x="1300" y="530" as="targetPoint" />
          </mxGeometry>
        </mxCell>
        <mxCell id="UQDr-YrBXV10DUioXXCp-12" value="" style="endArrow=none;html=1;rounded=0;strokeWidth=2;entryX=1;entryY=1;entryDx=0;entryDy=0;exitX=0;exitY=0;exitDx=0;exitDy=0;" edge="1" parent="1" source="UQDr-YrBXV10DUioXXCp-8" target="UQDr-YrBXV10DUioXXCp-10">
          <mxGeometry width="50" height="50" relative="1" as="geometry">
            <mxPoint x="1400" y="560" as="sourcePoint" />
            <mxPoint x="1450" y="510" as="targetPoint" />
          </mxGeometry>
        </mxCell>
        <mxCell id="UQDr-YrBXV10DUioXXCp-13" value="" style="ellipse;whiteSpace=wrap;html=1;aspect=fixed;strokeWidth=2;" vertex="1" parent="1">
          <mxGeometry x="1402.5" y="480" width="35" height="35" as="geometry" />
        </mxCell>
        <mxCell id="UQDr-YrBXV10DUioXXCp-14" value="" style="endArrow=none;html=1;rounded=0;entryX=0;entryY=1;entryDx=0;entryDy=0;strokeWidth=2;exitX=1;exitY=0;exitDx=0;exitDy=0;" edge="1" parent="1" source="UQDr-YrBXV10DUioXXCp-6" target="UQDr-YrBXV10DUioXXCp-7">
          <mxGeometry width="50" height="50" relative="1" as="geometry">
            <mxPoint x="1337.5012057557642" y="555.1403599329959" as="sourcePoint" />
            <mxPoint x="1350.4450000000002" y="534.86" as="targetPoint" />
          </mxGeometry>
        </mxCell>
        <mxCell id="UQDr-YrBXV10DUioXXCp-15" value="" style="endArrow=none;html=1;rounded=0;entryX=1;entryY=1;entryDx=0;entryDy=0;strokeWidth=2;exitX=0;exitY=0;exitDx=0;exitDy=0;" edge="1" parent="1" source="UQDr-YrBXV10DUioXXCp-13" target="UQDr-YrBXV10DUioXXCp-7">
          <mxGeometry width="50" height="50" relative="1" as="geometry">
            <mxPoint x="1378.5512057557642" y="535.2803599329959" as="sourcePoint" />
            <mxPoint x="1391.4950000000001" y="515" as="targetPoint" />
          </mxGeometry>
        </mxCell>
        <mxCell id="UQDr-YrBXV10DUioXXCp-25" value="" style="edgeStyle=none;rounded=0;orthogonalLoop=1;jettySize=auto;html=1;strokeWidth=2;endArrow=none;endFill=0;" edge="1" parent="1" source="UQDr-YrBXV10DUioXXCp-16" target="UQDr-YrBXV10DUioXXCp-17">
          <mxGeometry relative="1" as="geometry" />
        </mxCell>
        <mxCell id="UQDr-YrBXV10DUioXXCp-26" value="" style="edgeStyle=none;rounded=0;orthogonalLoop=1;jettySize=auto;html=1;strokeWidth=2;endArrow=none;endFill=0;" edge="1" parent="1" source="UQDr-YrBXV10DUioXXCp-16" target="UQDr-YrBXV10DUioXXCp-19">
          <mxGeometry relative="1" as="geometry" />
        </mxCell>
        <mxCell id="UQDr-YrBXV10DUioXXCp-16" value="1" style="ellipse;whiteSpace=wrap;html=1;aspect=fixed;strokeWidth=2;" vertex="1" parent="1">
          <mxGeometry x="1720" y="140" width="40" height="40" as="geometry" />
        </mxCell>
        <mxCell id="UQDr-YrBXV10DUioXXCp-30" style="edgeStyle=none;rounded=0;orthogonalLoop=1;jettySize=auto;html=1;exitX=0;exitY=1;exitDx=0;exitDy=0;entryX=1;entryY=0;entryDx=0;entryDy=0;strokeWidth=2;endArrow=none;endFill=0;" edge="1" parent="1" source="UQDr-YrBXV10DUioXXCp-17" target="UQDr-YrBXV10DUioXXCp-18">
          <mxGeometry relative="1" as="geometry" />
        </mxCell>
        <mxCell id="UQDr-YrBXV10DUioXXCp-31" style="edgeStyle=none;rounded=0;orthogonalLoop=1;jettySize=auto;html=1;exitX=1;exitY=1;exitDx=0;exitDy=0;entryX=0;entryY=0;entryDx=0;entryDy=0;strokeWidth=2;endArrow=none;endFill=0;" edge="1" parent="1" source="UQDr-YrBXV10DUioXXCp-17" target="UQDr-YrBXV10DUioXXCp-22">
          <mxGeometry relative="1" as="geometry" />
        </mxCell>
        <mxCell id="UQDr-YrBXV10DUioXXCp-17" value="2" style="ellipse;whiteSpace=wrap;html=1;aspect=fixed;strokeWidth=2;" vertex="1" parent="1">
          <mxGeometry x="1650" y="175" width="40" height="40" as="geometry" />
        </mxCell>
        <mxCell id="UQDr-YrBXV10DUioXXCp-18" value="4" style="ellipse;whiteSpace=wrap;html=1;aspect=fixed;strokeWidth=2;" vertex="1" parent="1">
          <mxGeometry x="1600" y="230" width="40" height="40" as="geometry" />
        </mxCell>
        <mxCell id="UQDr-YrBXV10DUioXXCp-32" style="edgeStyle=none;rounded=0;orthogonalLoop=1;jettySize=auto;html=1;exitX=0;exitY=1;exitDx=0;exitDy=0;entryX=1;entryY=0;entryDx=0;entryDy=0;strokeWidth=2;endArrow=none;endFill=0;" edge="1" parent="1" source="UQDr-YrBXV10DUioXXCp-19" target="UQDr-YrBXV10DUioXXCp-21">
          <mxGeometry relative="1" as="geometry" />
        </mxCell>
        <mxCell id="UQDr-YrBXV10DUioXXCp-19" value="O" style="ellipse;whiteSpace=wrap;html=1;aspect=fixed;strokeWidth=2;fontFamily=Comic Sans MS;fontSize=20;fontColor=#0000FF;" vertex="1" parent="1">
          <mxGeometry x="1790" y="175" width="40" height="40" as="geometry" />
        </mxCell>
        <mxCell id="UQDr-YrBXV10DUioXXCp-21" value="M" style="ellipse;whiteSpace=wrap;html=1;aspect=fixed;strokeWidth=2;fontFamily=Comic Sans MS;fontSize=20;fontColor=#0000FF;" vertex="1" parent="1">
          <mxGeometry x="1750" y="230" width="40" height="40" as="geometry" />
        </mxCell>
        <mxCell id="UQDr-YrBXV10DUioXXCp-22" value="5" style="ellipse;whiteSpace=wrap;html=1;aspect=fixed;strokeWidth=2;" vertex="1" parent="1">
          <mxGeometry x="1690" y="230" width="40" height="40" as="geometry" />
        </mxCell>
        <mxCell id="UQDr-YrBXV10DUioXXCp-38" value="A" style="ellipse;whiteSpace=wrap;html=1;aspect=fixed;strokeWidth=2;fontFamily=Comic Sans MS;fontSize=20;fontColor=#0000FF;" vertex="1" parent="1">
          <mxGeometry x="1720" y="140" width="40" height="40" as="geometry" />
        </mxCell>
        <mxCell id="UQDr-YrBXV10DUioXXCp-39" value="B" style="ellipse;whiteSpace=wrap;html=1;aspect=fixed;strokeWidth=2;fontFamily=Comic Sans MS;fontSize=20;fontColor=#0000FF;" vertex="1" parent="1">
          <mxGeometry x="1650" y="175" width="40" height="40" as="geometry" />
        </mxCell>
        <mxCell id="UQDr-YrBXV10DUioXXCp-40" value="C" style="ellipse;whiteSpace=wrap;html=1;aspect=fixed;strokeWidth=2;fontFamily=Comic Sans MS;fontSize=20;fontColor=#0000FF;" vertex="1" parent="1">
          <mxGeometry x="1600" y="230" width="40" height="40" as="geometry" />
        </mxCell>
        <mxCell id="UQDr-YrBXV10DUioXXCp-41" value="S" style="ellipse;whiteSpace=wrap;html=1;aspect=fixed;strokeWidth=2;fontFamily=Comic Sans MS;fontSize=20;fontColor=#0000FF;" vertex="1" parent="1">
          <mxGeometry x="1690" y="230" width="40" height="40" as="geometry" />
        </mxCell>
        <mxCell id="UQDr-YrBXV10DUioXXCp-43" value="&lt;span style=&quot;font-family: &amp;quot;comic sans ms&amp;quot;; font-size: 20px; font-style: normal; font-weight: 400; letter-spacing: normal; text-indent: 0px; text-transform: none; word-spacing: 0px; background-color: rgb(248, 249, 250); display: inline; float: none;&quot;&gt;1&lt;/span&gt;" style="text;whiteSpace=wrap;html=1;fontSize=20;fontFamily=Comic Sans MS;fontColor=#FF0000;align=center;" vertex="1" parent="1">
          <mxGeometry x="1720" y="110" width="40" height="40" as="geometry" />
        </mxCell>
        <mxCell id="UQDr-YrBXV10DUioXXCp-44" value="&lt;span style=&quot;font-family: &amp;#34;comic sans ms&amp;#34; ; font-size: 20px ; font-style: normal ; font-weight: 400 ; letter-spacing: normal ; text-indent: 0px ; text-transform: none ; word-spacing: 0px ; background-color: rgb(248 , 249 , 250) ; display: inline ; float: none&quot;&gt;2&lt;/span&gt;" style="text;whiteSpace=wrap;html=1;fontSize=20;fontFamily=Comic Sans MS;fontColor=#FF0000;align=center;" vertex="1" parent="1">
          <mxGeometry x="1650" y="150" width="40" height="40" as="geometry" />
        </mxCell>
        <mxCell id="UQDr-YrBXV10DUioXXCp-45" value="&lt;span style=&quot;font-family: &amp;#34;comic sans ms&amp;#34; ; font-size: 20px ; font-style: normal ; font-weight: 400 ; letter-spacing: normal ; text-indent: 0px ; text-transform: none ; word-spacing: 0px ; background-color: rgb(248 , 249 , 250) ; display: inline ; float: none&quot;&gt;3&lt;/span&gt;" style="text;whiteSpace=wrap;html=1;fontSize=20;fontFamily=Comic Sans MS;fontColor=#FF0000;align=center;" vertex="1" parent="1">
          <mxGeometry x="1790" y="150" width="40" height="40" as="geometry" />
        </mxCell>
        <mxCell id="UQDr-YrBXV10DUioXXCp-46" value="&lt;span style=&quot;font-family: &amp;#34;comic sans ms&amp;#34; ; font-size: 20px ; font-style: normal ; font-weight: 400 ; letter-spacing: normal ; text-indent: 0px ; text-transform: none ; word-spacing: 0px ; background-color: rgb(248 , 249 , 250) ; display: inline ; float: none&quot;&gt;6&lt;/span&gt;" style="text;whiteSpace=wrap;html=1;fontSize=20;fontFamily=Comic Sans MS;fontColor=#FF0000;align=center;" vertex="1" parent="1">
          <mxGeometry x="1750" y="200" width="40" height="40" as="geometry" />
        </mxCell>
        <mxCell id="UQDr-YrBXV10DUioXXCp-47" value="&lt;span style=&quot;font-family: &amp;#34;comic sans ms&amp;#34; ; font-size: 20px ; font-style: normal ; font-weight: 400 ; letter-spacing: normal ; text-indent: 0px ; text-transform: none ; word-spacing: 0px ; background-color: rgb(248 , 249 , 250) ; display: inline ; float: none&quot;&gt;5&lt;/span&gt;" style="text;whiteSpace=wrap;html=1;fontSize=20;fontFamily=Comic Sans MS;fontColor=#FF0000;align=center;" vertex="1" parent="1">
          <mxGeometry x="1690" y="200" width="40" height="40" as="geometry" />
        </mxCell>
        <mxCell id="UQDr-YrBXV10DUioXXCp-48" value="&lt;span style=&quot;font-family: &amp;#34;comic sans ms&amp;#34; ; font-size: 20px ; font-style: normal ; font-weight: 400 ; letter-spacing: normal ; text-indent: 0px ; text-transform: none ; word-spacing: 0px ; background-color: rgb(248 , 249 , 250) ; display: inline ; float: none&quot;&gt;4&lt;/span&gt;" style="text;whiteSpace=wrap;html=1;fontSize=20;fontFamily=Comic Sans MS;fontColor=#FF0000;align=center;" vertex="1" parent="1">
          <mxGeometry x="1600" y="200" width="40" height="40" as="geometry" />
        </mxCell>
        <mxCell id="UQDr-YrBXV10DUioXXCp-49" value="&lt;span style=&quot;color: rgb(0, 0, 255); font-family: &amp;quot;comic sans ms&amp;quot;; font-size: 20px; font-style: normal; font-weight: 400; letter-spacing: normal; text-indent: 0px; text-transform: none; word-spacing: 0px; background-color: rgb(248, 249, 250); display: inline; float: none;&quot;&gt;A&lt;/span&gt;" style="text;whiteSpace=wrap;html=1;fontSize=20;fontFamily=Comic Sans MS;fontColor=#FF0000;align=center;" vertex="1" parent="1">
          <mxGeometry x="1655" y="300" width="40" height="40" as="geometry" />
        </mxCell>
        <mxCell id="UQDr-YrBXV10DUioXXCp-50" value="&lt;span style=&quot;color: rgb(0 , 0 , 255) ; font-family: &amp;#34;comic sans ms&amp;#34; ; font-size: 20px ; font-style: normal ; font-weight: 400 ; letter-spacing: normal ; text-indent: 0px ; text-transform: none ; word-spacing: 0px ; background-color: rgb(248 , 249 , 250) ; display: inline ; float: none&quot;&gt;C&lt;/span&gt;" style="text;whiteSpace=wrap;html=1;fontSize=20;fontFamily=Comic Sans MS;fontColor=#FF0000;align=center;" vertex="1" parent="1">
          <mxGeometry x="1775" y="300" width="40" height="40" as="geometry" />
        </mxCell>
        <mxCell id="UQDr-YrBXV10DUioXXCp-51" value="&lt;span style=&quot;color: rgb(0 , 0 , 255) ; font-family: &amp;#34;comic sans ms&amp;#34; ; font-size: 20px ; font-style: normal ; font-weight: 400 ; letter-spacing: normal ; text-indent: 0px ; text-transform: none ; word-spacing: 0px ; background-color: rgb(248 , 249 , 250) ; display: inline ; float: none&quot;&gt;M&lt;/span&gt;" style="text;whiteSpace=wrap;html=1;fontSize=20;fontFamily=Comic Sans MS;fontColor=#FF0000;align=center;" vertex="1" parent="1">
          <mxGeometry x="1855" y="300" width="40" height="40" as="geometry" />
        </mxCell>
        <mxCell id="UQDr-YrBXV10DUioXXCp-52" value="&lt;span style=&quot;color: rgb(0 , 0 , 255) ; font-family: &amp;#34;comic sans ms&amp;#34; ; font-size: 20px ; font-style: normal ; font-weight: 400 ; letter-spacing: normal ; text-indent: 0px ; text-transform: none ; word-spacing: 0px ; background-color: rgb(248 , 249 , 250) ; display: inline ; float: none&quot;&gt;S&lt;/span&gt;" style="text;whiteSpace=wrap;html=1;fontSize=20;fontFamily=Comic Sans MS;fontColor=#FF0000;align=center;" vertex="1" parent="1">
          <mxGeometry x="1815" y="300" width="40" height="40" as="geometry" />
        </mxCell>
        <mxCell id="UQDr-YrBXV10DUioXXCp-53" value="&lt;span style=&quot;color: rgb(0 , 0 , 255) ; font-family: &amp;#34;comic sans ms&amp;#34; ; font-size: 20px ; font-style: normal ; font-weight: 400 ; letter-spacing: normal ; text-indent: 0px ; text-transform: none ; word-spacing: 0px ; background-color: rgb(248 , 249 , 250) ; display: inline ; float: none&quot;&gt;B&lt;/span&gt;" style="text;whiteSpace=wrap;html=1;fontSize=20;fontFamily=Comic Sans MS;fontColor=#FF0000;align=center;" vertex="1" parent="1">
          <mxGeometry x="1695" y="300" width="40" height="40" as="geometry" />
        </mxCell>
        <mxCell id="UQDr-YrBXV10DUioXXCp-54" value="&lt;span style=&quot;color: rgb(0 , 0 , 255) ; font-family: &amp;#34;comic sans ms&amp;#34; ; font-size: 20px ; font-style: normal ; font-weight: 400 ; letter-spacing: normal ; text-indent: 0px ; text-transform: none ; word-spacing: 0px ; background-color: rgb(248 , 249 , 250) ; display: inline ; float: none&quot;&gt;O&lt;/span&gt;" style="text;whiteSpace=wrap;html=1;fontSize=20;fontFamily=Comic Sans MS;fontColor=#FF0000;align=center;" vertex="1" parent="1">
          <mxGeometry x="1735" y="300" width="40" height="40" as="geometry" />
        </mxCell>
        <mxCell id="UQDr-YrBXV10DUioXXCp-56" value="&lt;span style=&quot;font-family: &amp;quot;comic sans ms&amp;quot;; font-size: 20px; font-style: normal; font-weight: 400; letter-spacing: normal; text-indent: 0px; text-transform: none; word-spacing: 0px; background-color: rgb(248, 249, 250); display: inline; float: none;&quot;&gt;1&lt;/span&gt;" style="text;whiteSpace=wrap;html=1;fontSize=20;fontFamily=Comic Sans MS;fontColor=#FF0000;align=center;" vertex="1" parent="1">
          <mxGeometry x="1655" y="340" width="40" height="40" as="geometry" />
        </mxCell>
        <mxCell id="UQDr-YrBXV10DUioXXCp-57" value="&lt;span style=&quot;font-family: &amp;#34;comic sans ms&amp;#34; ; font-size: 20px ; font-style: normal ; font-weight: 400 ; letter-spacing: normal ; text-indent: 0px ; text-transform: none ; word-spacing: 0px ; background-color: rgb(248 , 249 , 250) ; display: inline ; float: none&quot;&gt;5&lt;/span&gt;" style="text;whiteSpace=wrap;html=1;fontSize=20;fontFamily=Comic Sans MS;fontColor=#FF0000;align=center;" vertex="1" parent="1">
          <mxGeometry x="1815" y="340" width="40" height="40" as="geometry" />
        </mxCell>
        <mxCell id="UQDr-YrBXV10DUioXXCp-58" value="&lt;span style=&quot;font-family: &amp;#34;comic sans ms&amp;#34; ; font-size: 20px ; font-style: normal ; font-weight: 400 ; letter-spacing: normal ; text-indent: 0px ; text-transform: none ; word-spacing: 0px ; background-color: rgb(248 , 249 , 250) ; display: inline ; float: none&quot;&gt;4&lt;/span&gt;" style="text;whiteSpace=wrap;html=1;fontSize=20;fontFamily=Comic Sans MS;fontColor=#FF0000;align=center;" vertex="1" parent="1">
          <mxGeometry x="1775" y="340" width="40" height="40" as="geometry" />
        </mxCell>
        <mxCell id="UQDr-YrBXV10DUioXXCp-59" value="&lt;span style=&quot;font-family: &amp;#34;comic sans ms&amp;#34; ; font-size: 20px ; font-style: normal ; font-weight: 400 ; letter-spacing: normal ; text-indent: 0px ; text-transform: none ; word-spacing: 0px ; background-color: rgb(248 , 249 , 250) ; display: inline ; float: none&quot;&gt;2&lt;/span&gt;" style="text;whiteSpace=wrap;html=1;fontSize=20;fontFamily=Comic Sans MS;fontColor=#FF0000;align=center;" vertex="1" parent="1">
          <mxGeometry x="1695" y="340" width="40" height="40" as="geometry" />
        </mxCell>
        <mxCell id="UQDr-YrBXV10DUioXXCp-60" value="&lt;span style=&quot;font-family: &amp;#34;comic sans ms&amp;#34; ; font-size: 20px ; font-style: normal ; font-weight: 400 ; letter-spacing: normal ; text-indent: 0px ; text-transform: none ; word-spacing: 0px ; background-color: rgb(248 , 249 , 250) ; display: inline ; float: none&quot;&gt;3&lt;/span&gt;" style="text;whiteSpace=wrap;html=1;fontSize=20;fontFamily=Comic Sans MS;fontColor=#FF0000;align=center;" vertex="1" parent="1">
          <mxGeometry x="1735" y="340" width="40" height="40" as="geometry" />
        </mxCell>
        <mxCell id="UQDr-YrBXV10DUioXXCp-61" value="&lt;span style=&quot;font-family: &amp;#34;comic sans ms&amp;#34; ; font-size: 20px ; font-style: normal ; font-weight: 400 ; letter-spacing: normal ; text-indent: 0px ; text-transform: none ; word-spacing: 0px ; background-color: rgb(248 , 249 , 250) ; display: inline ; float: none&quot;&gt;6&lt;/span&gt;" style="text;whiteSpace=wrap;html=1;fontSize=20;fontFamily=Comic Sans MS;fontColor=#FF0000;align=center;" vertex="1" parent="1">
          <mxGeometry x="1855" y="340" width="40" height="40" as="geometry" />
        </mxCell>
        <mxCell id="UQDr-YrBXV10DUioXXCp-62" value="节点" style="text;html=1;strokeColor=none;fillColor=none;align=center;verticalAlign=middle;whiteSpace=wrap;rounded=0;fontFamily=Comic Sans MS;fontSize=20;fontColor=#000000;" vertex="1" parent="1">
          <mxGeometry x="1575" y="305" width="60" height="30" as="geometry" />
        </mxCell>
        <mxCell id="UQDr-YrBXV10DUioXXCp-63" value="数组索引" style="text;html=1;strokeColor=none;fillColor=none;align=center;verticalAlign=middle;whiteSpace=wrap;rounded=0;fontFamily=Comic Sans MS;fontSize=20;fontColor=#000000;" vertex="1" parent="1">
          <mxGeometry x="1560" y="345" width="90" height="30" as="geometry" />
        </mxCell>
        <mxCell id="UQDr-YrBXV10DUioXXCp-64" value="" style="endArrow=none;html=1;rounded=0;fontFamily=Comic Sans MS;fontSize=20;fontColor=#000000;strokeWidth=1;entryX=1;entryY=0;entryDx=0;entryDy=0;" edge="1" parent="1" target="UQDr-YrBXV10DUioXXCp-61">
          <mxGeometry width="50" height="50" relative="1" as="geometry">
            <mxPoint x="1560" y="340" as="sourcePoint" />
            <mxPoint x="1670" y="340" as="targetPoint" />
          </mxGeometry>
        </mxCell>
        <mxCell id="UQDr-YrBXV10DUioXXCp-66" value="" style="endArrow=none;html=1;rounded=0;fontFamily=Comic Sans MS;fontSize=20;fontColor=#000000;strokeWidth=1;" edge="1" parent="1">
          <mxGeometry width="50" height="50" relative="1" as="geometry">
            <mxPoint x="1695" y="375" as="sourcePoint" />
            <mxPoint x="1695" y="305" as="targetPoint" />
          </mxGeometry>
        </mxCell>
        <mxCell id="UQDr-YrBXV10DUioXXCp-68" value="" style="endArrow=none;html=1;rounded=0;fontFamily=Comic Sans MS;fontSize=20;fontColor=#000000;strokeWidth=1;" edge="1" parent="1">
          <mxGeometry width="50" height="50" relative="1" as="geometry">
            <mxPoint x="1735" y="375" as="sourcePoint" />
            <mxPoint x="1735" y="305" as="targetPoint" />
          </mxGeometry>
        </mxCell>
        <mxCell id="UQDr-YrBXV10DUioXXCp-69" value="" style="endArrow=none;html=1;rounded=0;fontFamily=Comic Sans MS;fontSize=20;fontColor=#000000;strokeWidth=1;" edge="1" parent="1">
          <mxGeometry width="50" height="50" relative="1" as="geometry">
            <mxPoint x="1775" y="375" as="sourcePoint" />
            <mxPoint x="1775" y="305" as="targetPoint" />
          </mxGeometry>
        </mxCell>
        <mxCell id="UQDr-YrBXV10DUioXXCp-70" value="" style="endArrow=none;html=1;rounded=0;fontFamily=Comic Sans MS;fontSize=20;fontColor=#000000;strokeWidth=1;" edge="1" parent="1">
          <mxGeometry width="50" height="50" relative="1" as="geometry">
            <mxPoint x="1815" y="375" as="sourcePoint" />
            <mxPoint x="1815" y="305" as="targetPoint" />
          </mxGeometry>
        </mxCell>
        <mxCell id="UQDr-YrBXV10DUioXXCp-71" value="" style="endArrow=none;html=1;rounded=0;fontFamily=Comic Sans MS;fontSize=20;fontColor=#000000;strokeWidth=1;" edge="1" parent="1">
          <mxGeometry width="50" height="50" relative="1" as="geometry">
            <mxPoint x="1855" y="375" as="sourcePoint" />
            <mxPoint x="1855" y="305" as="targetPoint" />
          </mxGeometry>
        </mxCell>
      </root>
    </mxGraphModel>
  </diagram>
</mxfile>
